<svg width="48" height="48" viewBox="0 0 48 48" fill="none" xmlns="http://www.w3.org/2000/svg">
<path d="M24.1897 3L42.3794 13.4955V34.5045L24.1897 45L6 34.5045V13.4955L24.1897 3Z" fill="#673AB8"/>
<path d="M10.9476 34.323C13.3668 37.4152 21.061 35.0688 28.3187 29.4118C35.5764 23.7366 39.7236 16.8609 37.3044 13.7505C34.8852 10.6582 27.1909 13.0229 19.9333 18.6799C12.6756 24.355 8.52833 31.2307 10.9476 34.323ZM11.9844 33.5226C11.184 32.504 11.5296 30.485 13.0757 27.9384C15.1314 24.779 17.7229 22.0028 20.7336 19.7349C23.6702 17.3555 27.0007 15.5086 30.5742 14.278C33.4118 13.4048 35.4491 13.5504 36.2494 14.569C37.0498 15.6058 36.7042 17.6249 35.158 20.1532C33.1003 23.3272 30.5023 26.116 27.482 28.3932C24.5509 30.7707 21.2267 32.6175 17.6596 33.8501C14.8038 34.7232 12.7665 34.5777 11.9662 33.5408L11.9844 33.5226Z" fill="white"/>
<path d="M37.2862 34.3225C39.7237 31.2303 35.5764 24.3546 28.3187 18.6794C21.0428 13.0042 13.3668 10.6578 10.9476 13.75C8.52833 16.8423 12.6756 23.7362 19.9333 29.3931C27.2091 35.0683 34.8852 37.433 37.3044 34.3225H37.2862ZM36.2676 33.5222C35.4673 34.559 33.43 34.7045 30.5924 33.8314C27.0189 32.6008 23.6884 30.7539 20.7518 28.3745C17.7249 26.099 15.1207 23.3101 13.0576 20.1346C11.5296 17.588 11.184 15.5872 11.9844 14.5504C12.7847 13.5317 14.822 13.3862 17.6596 14.2593C21.2331 15.49 24.5636 17.3368 27.5002 19.7162C30.5255 21.9864 33.1296 24.769 35.1944 27.938C36.7223 30.4845 37.068 32.4854 36.2676 33.5222Z" fill="white"/>
<path d="M24.1169 26.8283C24.4824 26.8283 24.8442 26.7563 25.1819 26.6164C25.5196 26.4765 25.8264 26.2716 26.0848 26.0131C26.3432 25.7547 26.5482 25.4479 26.6881 25.1102C26.8279 24.7726 26.8999 24.4107 26.8999 24.0452C26.8999 23.6798 26.8279 23.3179 26.6881 22.9802C26.5482 22.6426 26.3432 22.3358 26.0848 22.0773C25.8264 21.8189 25.5196 21.6139 25.1819 21.4741C24.8442 21.3342 24.4824 21.2622 24.1169 21.2622C23.3788 21.2622 22.6709 21.5554 22.149 22.0773C21.6271 22.5993 21.3339 23.3071 21.3339 24.0452C21.3339 24.7833 21.6271 25.4912 22.149 26.0131C22.6709 26.535 23.3788 26.8283 24.1169 26.8283Z" fill="white"/>
</svg>
