<svg width="48" height="48" viewBox="0 0 48 48" fill="none" xmlns="http://www.w3.org/2000/svg">
<path d="M34 3H14.2143C12.9914 3 12 3.97264 12 5.17243L12.0001 42.8276C12.0001 44.0274 12.9915 45 14.2144 45H40.7857C42.0086 45 43 44.0274 43 42.8276L43 12C39 8 38 7 34 3Z" fill="#E4EAF6"/>
<path d="M36.25 12H43L34 3V9.74998C34 10.9926 35.0074 12 36.25 12Z" fill="#D2DCF0"/>
<path fill-rule="evenodd" clip-rule="evenodd" d="M23.679 29.5934V30.524C23.679 31.0429 23.2583 31.4635 22.7395 31.4635C22.2206 31.4635 21.8 31.0429 21.8 30.524V28.9998C21.8 28.3371 22.3372 27.7998 23 27.7998H31.3006C31.9633 27.7998 32.5006 28.3371 32.5006 28.9998V30.524C32.5006 31.0429 32.08 31.4635 31.5611 31.4635C31.0423 31.4635 30.6216 31.0429 30.6216 30.524V29.5934H28.2012V38.4749H28.8509C29.3272 38.4749 29.7133 38.861 29.7133 39.3374C29.7133 39.8137 29.3272 40.1998 28.8509 40.1998H25.4497C24.9734 40.1998 24.5873 39.8137 24.5873 39.3374C24.5873 38.861 24.9734 38.4749 25.4497 38.4749H26.1018V29.5934H23.679Z" fill="black"/>
<path d="M35 21.5556V11.4444C35 10.6467 34.3244 10 33.491 10H12.5449H6.50897C5.67555 10 5 10.6467 5 11.4444V21.5556C5 22.3533 5.67555 23 6.50897 23H12.5449H33.4911C34.3244 23 35 22.3533 35 21.5556Z" fill="black"/>
<path fill-rule="evenodd" clip-rule="evenodd" d="M27.3183 13C26.912 13 26.5791 13.3103 26.5791 13.6972C26.5791 14.0841 26.912 14.3944 27.3183 14.3944H28.5503V19.2593C28.5503 19.6462 28.8832 19.9566 29.2895 19.9566C29.6958 19.9566 30.0287 19.6462 30.0287 19.2593V14.3944H31.2608C31.6671 14.3944 32 14.0841 32 13.6972C32 13.3103 31.6671 13 31.2608 13H27.3183Z" fill="white"/>
<path fill-rule="evenodd" clip-rule="evenodd" d="M9.26019 13.1391C8.56565 13.1391 8 13.6719 8 14.3322V19.2184C8 19.6259 8.34895 19.9538 8.77618 19.9538C9.20342 19.9538 9.55236 19.6259 9.55236 19.2184V17.2818H11.0431C11.4704 17.2818 11.8193 16.954 11.8193 16.5464C11.8193 16.1389 11.4704 15.811 11.0431 15.811H9.55236V14.6099H11.8563C12.2835 14.6099 12.6324 14.282 12.6324 13.8745C12.6324 13.467 12.2835 13.1391 11.8563 13.1391H9.26019Z" fill="white"/>
<path fill-rule="evenodd" clip-rule="evenodd" d="M21.5183 13.4877C21.3337 13.2347 20.9985 13.1256 20.6907 13.2176C20.3827 13.3097 20.1725 13.5821 20.1725 13.8909V19.2945C20.1725 19.6847 20.5041 20 20.9117 20C21.3193 20 21.6509 19.6847 21.6509 19.2945V16.1386L24.2476 19.6976C24.4322 19.9507 24.7674 20.0597 25.0752 19.9677C25.3832 19.8756 25.5934 19.6032 25.5934 19.2945V13.8909C25.5934 13.5006 25.2618 13.1854 24.8542 13.1854C24.4466 13.1854 24.115 13.5006 24.115 13.8909V17.0467L21.5183 13.4877Z" fill="white"/>
<path fill-rule="evenodd" clip-rule="evenodd" d="M15.9836 13.1391C14.2961 13.1391 12.9281 14.4527 12.9281 16.0732V17.0197C12.9281 18.6401 14.2961 19.9538 15.9836 19.9538C17.6711 19.9538 19.039 18.6401 19.039 17.0197V16.0732C19.039 14.4527 17.6711 13.1391 15.9836 13.1391ZM17.5606 16.0732V17.0197C17.5606 17.856 16.8545 18.5341 15.9836 18.5341C15.1126 18.5341 14.4066 17.856 14.4066 17.0197V16.0732C14.4066 15.2368 15.1126 14.5588 15.9836 14.5588C16.8545 14.5588 17.5606 15.2368 17.5606 16.0732Z" fill="white"/>
</svg>
