<svg width="48" height="48" viewBox="0 0 48 48" fill="none" xmlns="http://www.w3.org/2000/svg">
<path d="M45 12.2807C45 12.2807 31 1.97882 20.1698 4.35618L19.3774 4.62033C17.7925 5.14863 16.4717 5.94108 15.6793 6.99769L15.151 7.79014L11.1887 14.6581L18.0566 15.9788C20.9623 17.8279 24.6604 18.6203 28.0944 17.8279L40.2453 20.2052L45 12.2807Z" fill="#76B3E1"/>
<path opacity="0.3" d="M45 12.2807C45 12.2807 31 1.97882 20.1698 4.35618L19.3774 4.62033C17.7925 5.14863 16.4717 5.94108 15.6793 6.99769L15.151 7.79014L11.1887 14.6581L18.0566 15.9788C20.9623 17.8279 24.6604 18.6203 28.0944 17.8279L40.2453 20.2052L45 12.2807Z" fill="url(#paint0_linear_179_1017)"/>
<path d="M15.6793 12.2805L14.6227 12.5446C10.1321 13.8654 8.81134 18.0918 11.1887 21.7899C13.8302 25.2239 19.3774 27.0729 23.8679 25.7522L40.2453 20.205C40.2453 20.205 26.2453 9.90314 15.6793 12.2805Z" fill="#518AC8"/>
<path opacity="0.3" d="M15.6793 12.2805L14.6227 12.5446C10.1321 13.8654 8.81134 18.0918 11.1887 21.7899C13.8302 25.2239 19.3774 27.0729 23.8679 25.7522L40.2453 20.205C40.2453 20.205 26.2453 9.90314 15.6793 12.2805Z" fill="url(#paint1_linear_179_1017)"/>
<path d="M37.3396 24.1676C35.8607 22.3201 33.864 20.956 31.6051 20.2501C29.3463 19.5442 26.9281 19.5286 24.6604 20.2054L8.28302 25.4884L3 34.7337L32.5849 39.7525L37.8679 30.2431C38.9245 28.3941 38.6604 26.2809 37.3396 24.1676Z" fill="url(#paint2_linear_179_1017)"/>
<path d="M32.0566 33.4123C30.5777 31.5647 28.581 30.2006 26.3221 29.4947C24.0633 28.7888 21.6451 28.7732 19.3774 29.45L3 34.733C3 34.733 17 45.2991 27.8302 42.6576L28.6226 42.3934C33.1132 41.0726 34.6981 36.8462 32.0566 33.4123Z" fill="url(#paint3_linear_179_1017)"/>
<defs>
<linearGradient id="paint0_linear_179_1017" x1="9.20759" y1="3.82788" x2="42.0944" y2="19.809" gradientUnits="userSpaceOnUse">
<stop offset="0.1" stop-color="#76B3E1"/>
<stop offset="0.3" stop-color="#DCF2FD"/>
<stop offset="1" stop-color="#76B3E1"/>
</linearGradient>
<linearGradient id="paint1_linear_179_1017" x1="27.2491" y1="11.6465" x2="21.4906" y2="30.8239" gradientUnits="userSpaceOnUse">
<stop stop-color="#76B3E1"/>
<stop offset="0.5" stop-color="#4377BB"/>
<stop offset="1" stop-color="#1F3B77"/>
</linearGradient>
<linearGradient id="paint2_linear_179_1017" x1="6.80377" y1="19.9941" x2="40.0604" y2="42.6054" gradientUnits="userSpaceOnUse">
<stop stop-color="#315AA9"/>
<stop offset="0.5" stop-color="#518AC8"/>
<stop offset="1" stop-color="#315AA9"/>
</linearGradient>
<linearGradient id="paint3_linear_179_1017" x1="21.8075" y1="22.7142" x2="8.38868" y2="71.9255" gradientUnits="userSpaceOnUse">
<stop stop-color="#4377BB"/>
<stop offset="0.5" stop-color="#1A336B"/>
<stop offset="1" stop-color="#1A336B"/>
</linearGradient>
</defs>
</svg>
